<?xml version="1.0" encoding="UTF-8"?>
<svg xmlns="http://www.w3.org/2000/svg" viewBox="0 0 128 128" width="128" height="128">
  <defs>
    <style type="text/css">
      .ColorScheme-Text { color:#E0E8F0; }
      .ColorScheme-Background { color:#0A0E14; }
      .ColorScheme-ButtonFocus { color:#0ABDC6; }
      .ColorScheme-ButtonHover { color:#2A3A4D; }
    </style>
  </defs>

  <!-- NORMAL state - dark elevated surface -->
  <rect id="normal-center" x="6" y="6" width="20" height="20" fill="#1C2632" fill-opacity="0.9"/>
  <rect id="normal-top" x="6" y="2" width="20" height="4" fill="#1C2632" fill-opacity="0.9"/>
  <rect id="normal-bottom" x="6" y="26" width="20" height="4" fill="#1C2632" fill-opacity="0.9"/>
  <rect id="normal-left" x="2" y="6" width="4" height="20" fill="#1C2632" fill-opacity="0.9"/>
  <rect id="normal-right" x="26" y="6" width="4" height="20" fill="#1C2632" fill-opacity="0.9"/>
  <rect id="normal-topleft" x="2" y="2" width="4" height="4" rx="3" fill="#1C2632" fill-opacity="0.9"/>
  <rect id="normal-topright" x="26" y="2" width="4" height="4" rx="3" fill="#1C2632" fill-opacity="0.9"/>
  <rect id="normal-bottomleft" x="2" y="26" width="4" height="4" rx="3" fill="#1C2632" fill-opacity="0.9"/>
  <rect id="normal-bottomright" x="26" y="26" width="4" height="4" rx="3" fill="#1C2632" fill-opacity="0.9"/>
  <!-- Subtle border -->
  <rect id="normal-border-top" x="2" y="2" width="28" height="1" fill="#08919A" fill-opacity="0.3"/>
  <rect id="normal-border-left" x="2" y="2" width="1" height="28" fill="#08919A" fill-opacity="0.25"/>
  <rect id="normal-border-right" x="29" y="2" width="1" height="28" fill="#08919A" fill-opacity="0.2"/>
  <rect id="normal-border-bottom" x="2" y="29" width="28" height="1" fill="#08919A" fill-opacity="0.15"/>
  <rect id="normal-hint-top-margin" x="0" y="0" width="1" height="2" fill="none"/>
  <rect id="normal-hint-bottom-margin" x="0" y="30" width="1" height="2" fill="none"/>
  <rect id="normal-hint-left-margin" x="0" y="0" width="2" height="1" fill="none"/>
  <rect id="normal-hint-right-margin" x="30" y="0" width="2" height="1" fill="none"/>
  <rect id="normal-hint-compose-over-border" x="0" y="0" width="1" height="1" fill="none"/>

  <!-- HOVER state - lighter surface -->
  <rect id="hover-center" x="38" y="6" width="20" height="20" fill="#2A3A4D" fill-opacity="0.95"/>
  <rect id="hover-top" x="38" y="2" width="20" height="4" fill="#2A3A4D" fill-opacity="0.95"/>
  <rect id="hover-bottom" x="38" y="26" width="20" height="4" fill="#2A3A4D" fill-opacity="0.95"/>
  <rect id="hover-left" x="34" y="6" width="4" height="20" fill="#2A3A4D" fill-opacity="0.95"/>
  <rect id="hover-right" x="58" y="6" width="4" height="20" fill="#2A3A4D" fill-opacity="0.95"/>
  <rect id="hover-topleft" x="34" y="2" width="4" height="4" rx="3" fill="#2A3A4D" fill-opacity="0.95"/>
  <rect id="hover-topright" x="58" y="2" width="4" height="4" rx="3" fill="#2A3A4D" fill-opacity="0.95"/>
  <rect id="hover-bottomleft" x="34" y="26" width="4" height="4" rx="3" fill="#2A3A4D" fill-opacity="0.95"/>
  <rect id="hover-bottomright" x="58" y="26" width="4" height="4" rx="3" fill="#2A3A4D" fill-opacity="0.95"/>
  <!-- Cyan border on hover -->
  <rect id="hover-border-top" x="34" y="2" width="28" height="1" fill="#0ABDC6" fill-opacity="0.5"/>
  <rect id="hover-border-left" x="34" y="2" width="1" height="28" fill="#0ABDC6" fill-opacity="0.4"/>
  <rect id="hover-border-right" x="61" y="2" width="1" height="28" fill="#0ABDC6" fill-opacity="0.3"/>
  <rect id="hover-border-bottom" x="34" y="29" width="28" height="1" fill="#0ABDC6" fill-opacity="0.25"/>
  <rect id="hover-hint-top-margin" x="32" y="0" width="1" height="2" fill="none"/>
  <rect id="hover-hint-bottom-margin" x="32" y="30" width="1" height="2" fill="none"/>
  <rect id="hover-hint-left-margin" x="32" y="0" width="2" height="1" fill="none"/>
  <rect id="hover-hint-right-margin" x="62" y="0" width="2" height="1" fill="none"/>

  <!-- PRESSED state - darker, inset feeling -->
  <rect id="pressed-center" x="70" y="6" width="20" height="20" fill="#131A24" fill-opacity="0.95"/>
  <rect id="pressed-top" x="70" y="2" width="20" height="4" fill="#131A24" fill-opacity="0.95"/>
  <rect id="pressed-bottom" x="70" y="26" width="20" height="4" fill="#131A24" fill-opacity="0.95"/>
  <rect id="pressed-left" x="66" y="6" width="4" height="20" fill="#131A24" fill-opacity="0.95"/>
  <rect id="pressed-right" x="90" y="6" width="4" height="20" fill="#131A24" fill-opacity="0.95"/>
  <rect id="pressed-topleft" x="66" y="2" width="4" height="4" rx="3" fill="#131A24" fill-opacity="0.95"/>
  <rect id="pressed-topright" x="90" y="2" width="4" height="4" rx="3" fill="#131A24" fill-opacity="0.95"/>
  <rect id="pressed-bottomleft" x="66" y="26" width="4" height="4" rx="3" fill="#131A24" fill-opacity="0.95"/>
  <rect id="pressed-bottomright" x="90" y="26" width="4" height="4" rx="3" fill="#131A24" fill-opacity="0.95"/>
  <!-- Brighter cyan border when pressed -->
  <rect id="pressed-border-top" x="66" y="2" width="28" height="1" fill="#0ABDC6" fill-opacity="0.7"/>
  <rect id="pressed-border-left" x="66" y="2" width="1" height="28" fill="#0ABDC6" fill-opacity="0.6"/>
  <rect id="pressed-border-right" x="93" y="2" width="1" height="28" fill="#0ABDC6" fill-opacity="0.5"/>
  <rect id="pressed-border-bottom" x="66" y="29" width="28" height="1" fill="#0ABDC6" fill-opacity="0.4"/>
  <rect id="pressed-hint-top-margin" x="64" y="0" width="1" height="2" fill="none"/>
  <rect id="pressed-hint-bottom-margin" x="64" y="30" width="1" height="2" fill="none"/>
  <rect id="pressed-hint-left-margin" x="64" y="0" width="2" height="1" fill="none"/>
  <rect id="pressed-hint-right-margin" x="94" y="0" width="2" height="1" fill="none"/>
  <rect id="pressed-hint-compose-over-border" x="64" y="0" width="1" height="1" fill="none"/>

  <!-- FOCUS state - cyan glow ring -->
  <rect id="focus-center" x="102" y="6" width="20" height="20" fill="#1C2632" fill-opacity="0.9"/>
  <rect id="focus-top" x="102" y="2" width="20" height="4" fill="#1C2632" fill-opacity="0.9"/>
  <rect id="focus-bottom" x="102" y="26" width="20" height="4" fill="#1C2632" fill-opacity="0.9"/>
  <rect id="focus-left" x="98" y="6" width="4" height="20" fill="#1C2632" fill-opacity="0.9"/>
  <rect id="focus-right" x="122" y="6" width="4" height="20" fill="#1C2632" fill-opacity="0.9"/>
  <rect id="focus-topleft" x="98" y="2" width="4" height="4" rx="3" fill="#1C2632" fill-opacity="0.9"/>
  <rect id="focus-topright" x="122" y="2" width="4" height="4" rx="3" fill="#1C2632" fill-opacity="0.9"/>
  <rect id="focus-bottomleft" x="98" y="26" width="4" height="4" rx="3" fill="#1C2632" fill-opacity="0.9"/>
  <rect id="focus-bottomright" x="122" y="26" width="4" height="4" rx="3" fill="#1C2632" fill-opacity="0.9"/>
  <!-- Strong cyan focus ring -->
  <rect id="focus-border-top" x="98" y="2" width="28" height="2" fill="#0ABDC6" fill-opacity="0.8"/>
  <rect id="focus-border-left" x="98" y="2" width="2" height="28" fill="#0ABDC6" fill-opacity="0.7"/>
  <rect id="focus-border-right" x="124" y="2" width="2" height="28" fill="#0ABDC6" fill-opacity="0.6"/>
  <rect id="focus-border-bottom" x="98" y="28" width="28" height="2" fill="#0ABDC6" fill-opacity="0.5"/>
  <rect id="focus-hint-top-margin" x="96" y="0" width="1" height="2" fill="none"/>
  <rect id="focus-hint-bottom-margin" x="96" y="30" width="1" height="2" fill="none"/>
  <rect id="focus-hint-left-margin" x="96" y="0" width="2" height="1" fill="none"/>
  <rect id="focus-hint-right-margin" x="126" y="0" width="2" height="1" fill="none"/>

  <!-- SHADOW (subtle drop shadow) -->
  <rect id="shadow-center" x="6" y="38" width="20" height="20" fill="#000000" fill-opacity="0.2"/>
  <rect id="shadow-top" x="6" y="34" width="20" height="4" fill="#000000" fill-opacity="0.1"/>
  <rect id="shadow-bottom" x="6" y="58" width="20" height="4" fill="#000000" fill-opacity="0.3"/>
  <rect id="shadow-left" x="2" y="38" width="4" height="20" fill="#000000" fill-opacity="0.15"/>
  <rect id="shadow-right" x="26" y="38" width="4" height="20" fill="#000000" fill-opacity="0.25"/>
  <rect id="shadow-topleft" x="2" y="34" width="4" height="4" fill="#000000" fill-opacity="0.08"/>
  <rect id="shadow-topright" x="26" y="34" width="4" height="4" fill="#000000" fill-opacity="0.12"/>
  <rect id="shadow-bottomleft" x="2" y="58" width="4" height="4" fill="#000000" fill-opacity="0.2"/>
  <rect id="shadow-bottomright" x="26" y="58" width="4" height="4" fill="#000000" fill-opacity="0.35"/>
  <rect id="shadow-hint-top-margin" x="0" y="32" width="1" height="2" fill="none"/>
  <rect id="shadow-hint-bottom-margin" x="0" y="62" width="1" height="4" fill="none"/>
  <rect id="shadow-hint-left-margin" x="0" y="32" width="2" height="1" fill="none"/>
  <rect id="shadow-hint-right-margin" x="30" y="32" width="4" height="1" fill="none"/>

  <!-- TOOLBUTTON variants (smaller, for toolbars) -->
  <!-- Toolbutton hover -->
  <rect id="toolbutton-hover-center" x="38" y="38" width="20" height="20" fill="#2A3A4D" fill-opacity="0.7"/>
  <rect id="toolbutton-hover-top" x="38" y="34" width="20" height="4" fill="#2A3A4D" fill-opacity="0.5"/>
  <rect id="toolbutton-hover-bottom" x="38" y="58" width="20" height="4" fill="#2A3A4D" fill-opacity="0.5"/>
  <rect id="toolbutton-hover-left" x="34" y="38" width="4" height="20" fill="#2A3A4D" fill-opacity="0.5"/>
  <rect id="toolbutton-hover-right" x="58" y="38" width="4" height="20" fill="#2A3A4D" fill-opacity="0.5"/>
  <rect id="toolbutton-hover-topleft" x="34" y="34" width="4" height="4" rx="2" fill="#2A3A4D" fill-opacity="0.4"/>
  <rect id="toolbutton-hover-topright" x="58" y="34" width="4" height="4" rx="2" fill="#2A3A4D" fill-opacity="0.4"/>
  <rect id="toolbutton-hover-bottomleft" x="34" y="58" width="4" height="4" rx="2" fill="#2A3A4D" fill-opacity="0.4"/>
  <rect id="toolbutton-hover-bottomright" x="58" y="58" width="4" height="4" rx="2" fill="#2A3A4D" fill-opacity="0.4"/>
  <rect id="toolbutton-hover-hint-top-margin" x="32" y="32" width="1" height="2" fill="none"/>
  <rect id="toolbutton-hover-hint-bottom-margin" x="32" y="62" width="1" height="2" fill="none"/>
  <rect id="toolbutton-hover-hint-left-margin" x="32" y="32" width="2" height="1" fill="none"/>
  <rect id="toolbutton-hover-hint-right-margin" x="62" y="32" width="2" height="1" fill="none"/>

  <!-- Toolbutton pressed -->
  <rect id="toolbutton-pressed-center" x="70" y="38" width="20" height="20" fill="#0ABDC6" fill-opacity="0.2"/>
  <rect id="toolbutton-pressed-top" x="70" y="34" width="20" height="4" fill="#0ABDC6" fill-opacity="0.15"/>
  <rect id="toolbutton-pressed-bottom" x="70" y="58" width="20" height="4" fill="#0ABDC6" fill-opacity="0.15"/>
  <rect id="toolbutton-pressed-left" x="66" y="38" width="4" height="20" fill="#0ABDC6" fill-opacity="0.15"/>
  <rect id="toolbutton-pressed-right" x="90" y="38" width="4" height="20" fill="#0ABDC6" fill-opacity="0.15"/>
  <rect id="toolbutton-pressed-topleft" x="66" y="34" width="4" height="4" rx="2" fill="#0ABDC6" fill-opacity="0.1"/>
  <rect id="toolbutton-pressed-topright" x="90" y="34" width="4" height="4" rx="2" fill="#0ABDC6" fill-opacity="0.1"/>
  <rect id="toolbutton-pressed-bottomleft" x="66" y="58" width="4" height="4" rx="2" fill="#0ABDC6" fill-opacity="0.1"/>
  <rect id="toolbutton-pressed-bottomright" x="90" y="58" width="4" height="4" rx="2" fill="#0ABDC6" fill-opacity="0.1"/>
  <rect id="toolbutton-pressed-hint-top-margin" x="64" y="32" width="1" height="2" fill="none"/>
  <rect id="toolbutton-pressed-hint-bottom-margin" x="64" y="62" width="1" height="2" fill="none"/>
  <rect id="toolbutton-pressed-hint-left-margin" x="64" y="32" width="2" height="1" fill="none"/>
  <rect id="toolbutton-pressed-hint-right-margin" x="94" y="32" width="2" height="1" fill="none"/>

  <!-- Toolbutton focus -->
  <rect id="toolbutton-focus-center" x="102" y="38" width="20" height="20" fill="#1C2632" fill-opacity="0.6"/>
  <rect id="toolbutton-focus-top" x="102" y="34" width="20" height="4" fill="#1C2632" fill-opacity="0.4"/>
  <rect id="toolbutton-focus-bottom" x="102" y="58" width="20" height="4" fill="#1C2632" fill-opacity="0.4"/>
  <rect id="toolbutton-focus-left" x="98" y="38" width="4" height="20" fill="#1C2632" fill-opacity="0.4"/>
  <rect id="toolbutton-focus-right" x="122" y="38" width="4" height="20" fill="#1C2632" fill-opacity="0.4"/>
  <rect id="toolbutton-focus-topleft" x="98" y="34" width="4" height="4" rx="2" fill="#1C2632" fill-opacity="0.3"/>
  <rect id="toolbutton-focus-topright" x="122" y="34" width="4" height="4" rx="2" fill="#1C2632" fill-opacity="0.3"/>
  <rect id="toolbutton-focus-bottomleft" x="98" y="58" width="4" height="4" rx="2" fill="#1C2632" fill-opacity="0.3"/>
  <rect id="toolbutton-focus-bottomright" x="122" y="58" width="4" height="4" rx="2" fill="#1C2632" fill-opacity="0.3"/>
  <!-- Cyan focus outline -->
  <rect id="toolbutton-focus-outline" x="98" y="34" width="28" height="28" fill="none" stroke="#0ABDC6" stroke-width="1" stroke-opacity="0.6" rx="2"/>
  <rect id="toolbutton-focus-hint-top-margin" x="96" y="32" width="1" height="2" fill="none"/>
  <rect id="toolbutton-focus-hint-bottom-margin" x="96" y="62" width="1" height="2" fill="none"/>
  <rect id="toolbutton-focus-hint-left-margin" x="96" y="32" width="2" height="1" fill="none"/>
  <rect id="toolbutton-focus-hint-right-margin" x="126" y="32" width="2" height="1" fill="none"/>
</svg>
