<?xml version="1.0" encoding="UTF-8"?>
<svg xmlns="http://www.w3.org/2000/svg" viewBox="0 0 64 64" width="64" height="64">
  <defs>
    <style type="text/css">
      .ColorScheme-Text { color:#E0E8F0; }
      .ColorScheme-Background { color:#0A0E14; }
      .ColorScheme-ButtonFocus { color:#0ABDC6; }
      .ColorScheme-ButtonHover { color:#2A3A4D; }
    </style>
  </defs>

  <!-- NORMAL state - transparent/invisible -->
  <rect id="normal-center" x="4" y="4" width="24" height="24" fill="none"/>
  <rect id="normal-top" x="4" y="0" width="24" height="4" fill="none"/>
  <rect id="normal-bottom" x="4" y="28" width="24" height="4" fill="none"/>
  <rect id="normal-left" x="0" y="4" width="4" height="24" fill="none"/>
  <rect id="normal-right" x="28" y="4" width="4" height="24" fill="none"/>
  <rect id="normal-topleft" x="0" y="0" width="4" height="4" fill="none"/>
  <rect id="normal-topright" x="28" y="0" width="4" height="4" fill="none"/>
  <rect id="normal-bottomleft" x="0" y="28" width="4" height="4" fill="none"/>
  <rect id="normal-bottomright" x="28" y="28" width="4" height="4" fill="none"/>
  <rect id="normal-hint-top-margin" x="0" y="0" width="1" height="0" fill="none"/>
  <rect id="normal-hint-bottom-margin" x="0" y="32" width="1" height="0" fill="none"/>
  <rect id="normal-hint-left-margin" x="0" y="0" width="0" height="1" fill="none"/>
  <rect id="normal-hint-right-margin" x="32" y="0" width="0" height="1" fill="none"/>

  <!-- HOVER state - subtle cyan highlight -->
  <rect id="hover-center" x="36" y="4" width="24" height="24" fill="#0ABDC6" fill-opacity="0.15"/>
  <rect id="hover-top" x="36" y="0" width="24" height="4" fill="#0ABDC6" fill-opacity="0.1"/>
  <rect id="hover-bottom" x="36" y="28" width="24" height="4" fill="#0ABDC6" fill-opacity="0.1"/>
  <rect id="hover-left" x="32" y="4" width="4" height="24" fill="#0ABDC6" fill-opacity="0.2"/>
  <rect id="hover-right" x="60" y="4" width="4" height="24" fill="#0ABDC6" fill-opacity="0.1"/>
  <rect id="hover-topleft" x="32" y="0" width="4" height="4" rx="2" fill="#0ABDC6" fill-opacity="0.15"/>
  <rect id="hover-topright" x="60" y="0" width="4" height="4" rx="2" fill="#0ABDC6" fill-opacity="0.08"/>
  <rect id="hover-bottomleft" x="32" y="28" width="4" height="4" rx="2" fill="#0ABDC6" fill-opacity="0.15"/>
  <rect id="hover-bottomright" x="60" y="28" width="4" height="4" rx="2" fill="#0ABDC6" fill-opacity="0.08"/>
  <!-- Cyan accent bar on left edge for hover -->
  <rect id="hover-accent" x="32" y="2" width="2" height="28" fill="#0ABDC6" fill-opacity="0.7"/>

  <!-- PRESSED state - brighter cyan -->
  <rect id="pressed-center" x="4" y="36" width="24" height="24" fill="#0ABDC6" fill-opacity="0.25"/>
  <rect id="pressed-top" x="4" y="32" width="24" height="4" fill="#0ABDC6" fill-opacity="0.2"/>
  <rect id="pressed-bottom" x="4" y="60" width="24" height="4" fill="#0ABDC6" fill-opacity="0.2"/>
  <rect id="pressed-left" x="0" y="36" width="4" height="24" fill="#0ABDC6" fill-opacity="0.3"/>
  <rect id="pressed-right" x="28" y="36" width="4" height="24" fill="#0ABDC6" fill-opacity="0.15"/>
  <rect id="pressed-topleft" x="0" y="32" width="4" height="4" rx="2" fill="#0ABDC6" fill-opacity="0.25"/>
  <rect id="pressed-topright" x="28" y="32" width="4" height="4" rx="2" fill="#0ABDC6" fill-opacity="0.15"/>
  <rect id="pressed-bottomleft" x="0" y="60" width="4" height="4" rx="2" fill="#0ABDC6" fill-opacity="0.25"/>
  <rect id="pressed-bottomright" x="28" y="60" width="4" height="4" rx="2" fill="#0ABDC6" fill-opacity="0.15"/>
  <!-- Accent bar for pressed -->
  <rect id="pressed-accent" x="0" y="34" width="2" height="28" fill="#0ABDC6" fill-opacity="0.9"/>
  <rect id="pressed-hint-top-margin" x="0" y="32" width="1" height="0" fill="none"/>
  <rect id="pressed-hint-bottom-margin" x="0" y="64" width="1" height="0" fill="none"/>
  <rect id="pressed-hint-left-margin" x="0" y="32" width="0" height="1" fill="none"/>
  <rect id="pressed-hint-right-margin" x="32" y="32" width="0" height="1" fill="none"/>

  <!-- SECTION header - subtle separator -->
  <rect id="section-center" x="36" y="36" width="24" height="24" fill="none"/>
  <rect id="section-top" x="36" y="32" width="24" height="4" fill="none"/>
  <rect id="section-bottom" x="36" y="60" width="24" height="4" fill="#08919A" fill-opacity="0.3"/>
  <rect id="section-left" x="32" y="36" width="4" height="24" fill="none"/>
  <rect id="section-right" x="60" y="36" width="4" height="24" fill="none"/>
  <rect id="section-topleft" x="32" y="32" width="4" height="4" fill="none"/>
  <rect id="section-topright" x="60" y="32" width="4" height="4" fill="none"/>
  <rect id="section-bottomleft" x="32" y="60" width="4" height="4" fill="#08919A" fill-opacity="0.3"/>
  <rect id="section-bottomright" x="60" y="60" width="4" height="4" fill="#08919A" fill-opacity="0.3"/>
  <rect id="section-hint-top-margin" x="32" y="32" width="1" height="0" fill="none"/>
  <rect id="section-hint-bottom-margin" x="32" y="64" width="1" height="0" fill="none"/>
  <rect id="section-hint-left-margin" x="32" y="32" width="0" height="1" fill="none"/>
  <rect id="section-hint-right-margin" x="64" y="32" width="0" height="1" fill="none"/>

  <!-- SEPARATOR line -->
  <rect id="separator" x="4" y="62" width="56" height="1" fill="#08919A" fill-opacity="0.4"/>

  <!-- Tile hint for horizontal tiling -->
  <rect id="hint-tile-center" x="0" y="0" width="1" height="1" fill="none"/>
</svg>
