<?xml version="1.0" encoding="UTF-8"?>
<svg xmlns="http://www.w3.org/2000/svg" viewBox="0 0 64 64" width="64" height="64">
  <defs>
    <style type="text/css">
      .ColorScheme-Text { color:#E0E8F0; }
      .ColorScheme-Background { color:#0A0E14; }
      .ColorScheme-ButtonFocus { color:#0ABDC6; }
      .ColorScheme-Highlight { color:#0ABDC6; }
    </style>
  </defs>

  <!-- NORMAL state - transparent -->
  <rect id="normal-center" x="4" y="4" width="24" height="24" fill="none"/>
  <rect id="normal-top" x="4" y="0" width="24" height="4" fill="none"/>
  <rect id="normal-bottom" x="4" y="28" width="24" height="4" fill="none"/>
  <rect id="normal-left" x="0" y="4" width="4" height="24" fill="none"/>
  <rect id="normal-right" x="28" y="4" width="4" height="24" fill="none"/>
  <rect id="normal-topleft" x="0" y="0" width="4" height="4" fill="none"/>
  <rect id="normal-topright" x="28" y="0" width="4" height="4" fill="none"/>
  <rect id="normal-bottomleft" x="0" y="28" width="4" height="4" fill="none"/>
  <rect id="normal-bottomright" x="28" y="28" width="4" height="4" fill="none"/>
  <rect id="normal-hint-top-margin" x="0" y="0" width="1" height="0" fill="none"/>
  <rect id="normal-hint-bottom-margin" x="0" y="32" width="1" height="0" fill="none"/>
  <rect id="normal-hint-left-margin" x="0" y="0" width="0" height="1" fill="none"/>
  <rect id="normal-hint-right-margin" x="32" y="0" width="0" height="1" fill="none"/>

  <!-- HOVER state - subtle highlight -->
  <rect id="hover-center" x="36" y="4" width="24" height="24" fill="#2A3A4D" fill-opacity="0.4"/>
  <rect id="hover-top" x="36" y="0" width="24" height="4" fill="#2A3A4D" fill-opacity="0.3"/>
  <rect id="hover-bottom" x="36" y="28" width="24" height="4" fill="#2A3A4D" fill-opacity="0.3"/>
  <rect id="hover-left" x="32" y="4" width="4" height="24" fill="#2A3A4D" fill-opacity="0.3"/>
  <rect id="hover-right" x="60" y="4" width="4" height="24" fill="#2A3A4D" fill-opacity="0.3"/>
  <rect id="hover-topleft" x="32" y="0" width="4" height="4" rx="2" fill="#2A3A4D" fill-opacity="0.2"/>
  <rect id="hover-topright" x="60" y="0" width="4" height="4" rx="2" fill="#2A3A4D" fill-opacity="0.2"/>
  <rect id="hover-bottomleft" x="32" y="28" width="4" height="4" rx="2" fill="#2A3A4D" fill-opacity="0.2"/>
  <rect id="hover-bottomright" x="60" y="28" width="4" height="4" rx="2" fill="#2A3A4D" fill-opacity="0.2"/>

  <!-- SELECTED state - cyan highlight -->
  <rect id="selected-center" x="4" y="36" width="24" height="24" fill="#0ABDC6" fill-opacity="0.2"/>
  <rect id="selected-top" x="4" y="32" width="24" height="4" fill="#0ABDC6" fill-opacity="0.15"/>
  <rect id="selected-bottom" x="4" y="60" width="24" height="4" fill="#0ABDC6" fill-opacity="0.15"/>
  <rect id="selected-left" x="0" y="36" width="4" height="24" fill="#0ABDC6" fill-opacity="0.25"/>
  <rect id="selected-right" x="28" y="36" width="4" height="24" fill="#0ABDC6" fill-opacity="0.1"/>
  <rect id="selected-topleft" x="0" y="32" width="4" height="4" rx="2" fill="#0ABDC6" fill-opacity="0.2"/>
  <rect id="selected-topright" x="28" y="32" width="4" height="4" rx="2" fill="#0ABDC6" fill-opacity="0.1"/>
  <rect id="selected-bottomleft" x="0" y="60" width="4" height="4" rx="2" fill="#0ABDC6" fill-opacity="0.2"/>
  <rect id="selected-bottomright" x="28" y="60" width="4" height="4" rx="2" fill="#0ABDC6" fill-opacity="0.1"/>
  <!-- Left accent bar -->
  <rect id="selected-accent" x="0" y="34" width="2" height="28" fill="#0ABDC6" fill-opacity="0.8"/>
  <rect id="selected-hint-top-margin" x="0" y="32" width="1" height="0" fill="none"/>
  <rect id="selected-hint-bottom-margin" x="0" y="64" width="1" height="0" fill="none"/>
  <rect id="selected-hint-left-margin" x="0" y="32" width="0" height="1" fill="none"/>
  <rect id="selected-hint-right-margin" x="32" y="32" width="0" height="1" fill="none"/>

  <!-- SELECTED+HOVER state - brighter -->
  <rect id="selected+hover-center" x="36" y="36" width="24" height="24" fill="#0ABDC6" fill-opacity="0.3"/>
  <rect id="selected+hover-top" x="36" y="32" width="24" height="4" fill="#0ABDC6" fill-opacity="0.25"/>
  <rect id="selected+hover-bottom" x="36" y="60" width="24" height="4" fill="#0ABDC6" fill-opacity="0.25"/>
  <rect id="selected+hover-left" x="32" y="36" width="4" height="24" fill="#0ABDC6" fill-opacity="0.35"/>
  <rect id="selected+hover-right" x="60" y="36" width="4" height="24" fill="#0ABDC6" fill-opacity="0.2"/>
  <rect id="selected+hover-topleft" x="32" y="32" width="4" height="4" rx="2" fill="#0ABDC6" fill-opacity="0.3"/>
  <rect id="selected+hover-topright" x="60" y="32" width="4" height="4" rx="2" fill="#0ABDC6" fill-opacity="0.2"/>
  <rect id="selected+hover-bottomleft" x="32" y="60" width="4" height="4" rx="2" fill="#0ABDC6" fill-opacity="0.3"/>
  <rect id="selected+hover-bottomright" x="60" y="60" width="4" height="4" rx="2" fill="#0ABDC6" fill-opacity="0.2"/>
  <!-- Brighter accent bar -->
  <rect id="selected+hover-accent" x="32" y="34" width="2" height="28" fill="#0ABDC6" fill-opacity="0.95"/>
</svg>
